<mxfile host="app.diagrams.net" modified="2023-09-09T02:43:26.010Z" agent="Mozilla/5.0 (Windows NT 10.0; Win64; x64) AppleWebKit/537.36 (KHTML, like Gecko) Chrome/115.0.0.0 Safari/537.36" etag="NLEhY_x5Utq85HhypPqR" version="21.7.2" type="device" pages="3">
  <diagram name="语句及条件覆盖" id="p1DawyyWLQWbrbQB41Fz">
    <mxGraphModel dx="1500" dy="763" grid="0" gridSize="10" guides="1" tooltips="1" connect="1" arrows="1" fold="1" page="1" pageScale="1" pageWidth="827" pageHeight="1169" math="0" shadow="0">
      <root>
        <mxCell id="0" />
        <mxCell id="1" parent="0" />
        <mxCell id="oMtj3yDENX00JfYqnQA4-12" style="edgeStyle=orthogonalEdgeStyle;rounded=0;orthogonalLoop=1;jettySize=auto;html=1;exitX=0.5;exitY=1;exitDx=0;exitDy=0;entryX=0.5;entryY=0;entryDx=0;entryDy=0;" parent="1" source="oMtj3yDENX00JfYqnQA4-2" target="oMtj3yDENX00JfYqnQA4-3" edge="1">
          <mxGeometry relative="1" as="geometry" />
        </mxCell>
        <mxCell id="oMtj3yDENX00JfYqnQA4-2" value="Entrance" style="rounded=1;whiteSpace=wrap;html=1;" parent="1" vertex="1">
          <mxGeometry x="196.75" y="127" width="82" height="41" as="geometry" />
        </mxCell>
        <mxCell id="9zBUutOTycy7udNpjJut-3" style="edgeStyle=orthogonalEdgeStyle;rounded=0;orthogonalLoop=1;jettySize=auto;html=1;exitX=0.5;exitY=1;exitDx=0;exitDy=0;entryX=0.5;entryY=0;entryDx=0;entryDy=0;" edge="1" parent="1" source="oMtj3yDENX00JfYqnQA4-3" target="9zBUutOTycy7udNpjJut-1">
          <mxGeometry relative="1" as="geometry" />
        </mxCell>
        <mxCell id="oMtj3yDENX00JfYqnQA4-3" value="Enter a, b, c" style="rounded=0;whiteSpace=wrap;html=1;" parent="1" vertex="1">
          <mxGeometry x="193.25" y="194" width="89" height="43" as="geometry" />
        </mxCell>
        <mxCell id="oMtj3yDENX00JfYqnQA4-14" value="F" style="edgeStyle=orthogonalEdgeStyle;rounded=0;orthogonalLoop=1;jettySize=auto;html=1;exitX=1;exitY=0.5;exitDx=0;exitDy=0;entryX=0;entryY=0.5;entryDx=0;entryDy=0;" parent="1" source="oMtj3yDENX00JfYqnQA4-4" target="oMtj3yDENX00JfYqnQA4-5" edge="1">
          <mxGeometry x="-0.0295" y="11" relative="1" as="geometry">
            <mxPoint as="offset" />
          </mxGeometry>
        </mxCell>
        <mxCell id="oMtj3yDENX00JfYqnQA4-15" value="T" style="edgeStyle=orthogonalEdgeStyle;rounded=0;orthogonalLoop=1;jettySize=auto;html=1;exitX=0.5;exitY=1;exitDx=0;exitDy=0;entryX=0.5;entryY=0;entryDx=0;entryDy=0;" parent="1" source="oMtj3yDENX00JfYqnQA4-4" target="oMtj3yDENX00JfYqnQA4-6" edge="1">
          <mxGeometry x="0.2444" y="15" relative="1" as="geometry">
            <mxPoint as="offset" />
          </mxGeometry>
        </mxCell>
        <mxCell id="oMtj3yDENX00JfYqnQA4-4" value="(a &amp;lt; b+c) &amp;amp;&amp;amp; (b &amp;lt; a+c) &amp;amp;&amp;amp;&lt;br&gt;&amp;nbsp;(c &amp;lt; a+b)" style="rhombus;whiteSpace=wrap;html=1;" parent="1" vertex="1">
          <mxGeometry x="131" y="383.5" width="213.5" height="80" as="geometry" />
        </mxCell>
        <mxCell id="oMtj3yDENX00JfYqnQA4-18" style="edgeStyle=orthogonalEdgeStyle;rounded=0;orthogonalLoop=1;jettySize=auto;html=1;exitX=1;exitY=0.5;exitDx=0;exitDy=0;entryX=1;entryY=0.5;entryDx=0;entryDy=0;" parent="1" source="oMtj3yDENX00JfYqnQA4-5" target="oMtj3yDENX00JfYqnQA4-11" edge="1">
          <mxGeometry relative="1" as="geometry" />
        </mxCell>
        <mxCell id="oMtj3yDENX00JfYqnQA4-5" value="Not a Triangle" style="rounded=0;whiteSpace=wrap;html=1;" parent="1" vertex="1">
          <mxGeometry x="381.75" y="400" width="96" height="47" as="geometry" />
        </mxCell>
        <mxCell id="oMtj3yDENX00JfYqnQA4-16" value="T" style="edgeStyle=orthogonalEdgeStyle;rounded=0;orthogonalLoop=1;jettySize=auto;html=1;exitX=1;exitY=0.5;exitDx=0;exitDy=0;" parent="1" source="oMtj3yDENX00JfYqnQA4-6" target="oMtj3yDENX00JfYqnQA4-8" edge="1">
          <mxGeometry x="-0.0539" y="15" relative="1" as="geometry">
            <mxPoint as="offset" />
          </mxGeometry>
        </mxCell>
        <mxCell id="oMtj3yDENX00JfYqnQA4-17" value="F" style="edgeStyle=orthogonalEdgeStyle;rounded=0;orthogonalLoop=1;jettySize=auto;html=1;exitX=0.5;exitY=1;exitDx=0;exitDy=0;entryX=0.5;entryY=0;entryDx=0;entryDy=0;" parent="1" source="oMtj3yDENX00JfYqnQA4-6" target="oMtj3yDENX00JfYqnQA4-7" edge="1">
          <mxGeometry x="-0.0244" y="9" relative="1" as="geometry">
            <mxPoint as="offset" />
          </mxGeometry>
        </mxCell>
        <mxCell id="oMtj3yDENX00JfYqnQA4-6" value="a == b &amp;amp;&amp;amp; b == c" style="rhombus;whiteSpace=wrap;html=1;" parent="1" vertex="1">
          <mxGeometry x="164.75" y="508.5" width="146" height="62" as="geometry" />
        </mxCell>
        <mxCell id="oMtj3yDENX00JfYqnQA4-19" value="T" style="edgeStyle=orthogonalEdgeStyle;rounded=0;orthogonalLoop=1;jettySize=auto;html=1;exitX=1;exitY=0.5;exitDx=0;exitDy=0;entryX=0;entryY=0.5;entryDx=0;entryDy=0;" parent="1" source="oMtj3yDENX00JfYqnQA4-7" target="oMtj3yDENX00JfYqnQA4-9" edge="1">
          <mxGeometry x="-0.1429" y="15" relative="1" as="geometry">
            <mxPoint x="1" as="offset" />
          </mxGeometry>
        </mxCell>
        <mxCell id="oMtj3yDENX00JfYqnQA4-20" value="F" style="edgeStyle=orthogonalEdgeStyle;rounded=0;orthogonalLoop=1;jettySize=auto;html=1;exitX=0.5;exitY=1;exitDx=0;exitDy=0;entryX=0.5;entryY=0;entryDx=0;entryDy=0;" parent="1" source="oMtj3yDENX00JfYqnQA4-7" target="oMtj3yDENX00JfYqnQA4-10" edge="1">
          <mxGeometry x="-0.1304" y="16" relative="1" as="geometry">
            <mxPoint as="offset" />
          </mxGeometry>
        </mxCell>
        <mxCell id="oMtj3yDENX00JfYqnQA4-7" value="a != b &amp;amp;&amp;amp; a != c &amp;amp;&amp;amp; b != c" style="rhombus;whiteSpace=wrap;html=1;" parent="1" vertex="1">
          <mxGeometry x="144.25" y="611.5" width="187" height="70" as="geometry" />
        </mxCell>
        <mxCell id="oMtj3yDENX00JfYqnQA4-21" style="edgeStyle=orthogonalEdgeStyle;rounded=0;orthogonalLoop=1;jettySize=auto;html=1;exitX=1;exitY=0.5;exitDx=0;exitDy=0;entryX=1;entryY=0.5;entryDx=0;entryDy=0;" parent="1" source="oMtj3yDENX00JfYqnQA4-8" target="oMtj3yDENX00JfYqnQA4-11" edge="1">
          <mxGeometry relative="1" as="geometry" />
        </mxCell>
        <mxCell id="oMtj3yDENX00JfYqnQA4-8" value="Equilateral" style="rounded=0;whiteSpace=wrap;html=1;" parent="1" vertex="1">
          <mxGeometry x="386.75" y="516.75" width="91" height="45.5" as="geometry" />
        </mxCell>
        <mxCell id="oMtj3yDENX00JfYqnQA4-22" style="edgeStyle=orthogonalEdgeStyle;rounded=0;orthogonalLoop=1;jettySize=auto;html=1;exitX=0.5;exitY=1;exitDx=0;exitDy=0;entryX=0.5;entryY=0;entryDx=0;entryDy=0;" parent="1" source="oMtj3yDENX00JfYqnQA4-9" target="oMtj3yDENX00JfYqnQA4-11" edge="1">
          <mxGeometry relative="1" as="geometry" />
        </mxCell>
        <mxCell id="oMtj3yDENX00JfYqnQA4-9" value="Scalene" style="rounded=0;whiteSpace=wrap;html=1;" parent="1" vertex="1">
          <mxGeometry x="378.64" y="624.31" width="88.75" height="44.38" as="geometry" />
        </mxCell>
        <mxCell id="oMtj3yDENX00JfYqnQA4-23" style="edgeStyle=orthogonalEdgeStyle;rounded=0;orthogonalLoop=1;jettySize=auto;html=1;exitX=1;exitY=0.5;exitDx=0;exitDy=0;entryX=0;entryY=0.5;entryDx=0;entryDy=0;" parent="1" source="oMtj3yDENX00JfYqnQA4-10" target="oMtj3yDENX00JfYqnQA4-11" edge="1">
          <mxGeometry relative="1" as="geometry" />
        </mxCell>
        <mxCell id="oMtj3yDENX00JfYqnQA4-10" value="Isosceles" style="rounded=0;whiteSpace=wrap;html=1;" parent="1" vertex="1">
          <mxGeometry x="195.25" y="727.5" width="85" height="42.5" as="geometry" />
        </mxCell>
        <mxCell id="oMtj3yDENX00JfYqnQA4-11" value="Return" style="rounded=1;whiteSpace=wrap;html=1;" parent="1" vertex="1">
          <mxGeometry x="381.01" y="728" width="84" height="42" as="geometry" />
        </mxCell>
        <mxCell id="1Kh99Y0t14na6HnomfFa-1" value="T1" style="text;html=1;align=center;verticalAlign=middle;resizable=0;points=[];autosize=1;strokeColor=none;fillColor=none;" parent="1" vertex="1">
          <mxGeometry x="59" y="291" width="32" height="26" as="geometry" />
        </mxCell>
        <mxCell id="1Kh99Y0t14na6HnomfFa-2" value="T2" style="text;html=1;align=center;verticalAlign=middle;resizable=0;points=[];autosize=1;strokeColor=none;fillColor=none;" parent="1" vertex="1">
          <mxGeometry x="89" y="415" width="32" height="26" as="geometry" />
        </mxCell>
        <mxCell id="1Kh99Y0t14na6HnomfFa-3" value="T3" style="text;html=1;align=center;verticalAlign=middle;resizable=0;points=[];autosize=1;strokeColor=none;fillColor=none;" parent="1" vertex="1">
          <mxGeometry x="121" y="520" width="32" height="26" as="geometry" />
        </mxCell>
        <mxCell id="1Kh99Y0t14na6HnomfFa-4" value="T4" style="text;html=1;align=center;verticalAlign=middle;resizable=0;points=[];autosize=1;strokeColor=none;fillColor=none;" parent="1" vertex="1">
          <mxGeometry x="409" y="490.75" width="32" height="26" as="geometry" />
        </mxCell>
        <mxCell id="1Kh99Y0t14na6HnomfFa-5" value="T5&lt;br&gt;" style="text;html=1;align=center;verticalAlign=middle;resizable=0;points=[];autosize=1;strokeColor=none;fillColor=none;" parent="1" vertex="1">
          <mxGeometry x="106" y="636" width="32" height="26" as="geometry" />
        </mxCell>
        <mxCell id="1Kh99Y0t14na6HnomfFa-6" value="T7" style="text;html=1;align=center;verticalAlign=middle;resizable=0;points=[];autosize=1;strokeColor=none;fillColor=none;" parent="1" vertex="1">
          <mxGeometry x="150" y="736" width="32" height="26" as="geometry" />
        </mxCell>
        <mxCell id="1Kh99Y0t14na6HnomfFa-7" value="T6&lt;br&gt;" style="text;html=1;align=center;verticalAlign=middle;resizable=0;points=[];autosize=1;strokeColor=none;fillColor=none;" parent="1" vertex="1">
          <mxGeometry x="403" y="596" width="32" height="26" as="geometry" />
        </mxCell>
        <mxCell id="9zBUutOTycy7udNpjJut-2" value="F" style="edgeStyle=orthogonalEdgeStyle;rounded=0;orthogonalLoop=1;jettySize=auto;html=1;exitX=0.5;exitY=1;exitDx=0;exitDy=0;entryX=0.5;entryY=0;entryDx=0;entryDy=0;" edge="1" parent="1" source="9zBUutOTycy7udNpjJut-1" target="oMtj3yDENX00JfYqnQA4-4">
          <mxGeometry x="0.0435" y="10" relative="1" as="geometry">
            <mxPoint as="offset" />
          </mxGeometry>
        </mxCell>
        <mxCell id="9zBUutOTycy7udNpjJut-4" value="T" style="edgeStyle=orthogonalEdgeStyle;rounded=0;orthogonalLoop=1;jettySize=auto;html=1;exitX=1;exitY=0.5;exitDx=0;exitDy=0;" edge="1" parent="1" source="9zBUutOTycy7udNpjJut-1" target="oMtj3yDENX00JfYqnQA4-5">
          <mxGeometry x="0.0544" y="-17" relative="1" as="geometry">
            <mxPoint as="offset" />
          </mxGeometry>
        </mxCell>
        <mxCell id="9zBUutOTycy7udNpjJut-1" value="a &amp;lt;= 0 || a &amp;gt;= 200 || b &amp;lt;= 0 || b &amp;gt;= 200&lt;br&gt;&amp;nbsp;|| c &amp;lt;= 0 || c &amp;gt;= 200" style="rhombus;whiteSpace=wrap;html=1;" vertex="1" parent="1">
          <mxGeometry x="99.75" y="263" width="276" height="86" as="geometry" />
        </mxCell>
        <mxCell id="9zBUutOTycy7udNpjJut-5" value="T8" style="text;html=1;align=center;verticalAlign=middle;resizable=0;points=[];autosize=1;strokeColor=none;fillColor=none;" vertex="1" parent="1">
          <mxGeometry x="438" y="368" width="32" height="26" as="geometry" />
        </mxCell>
      </root>
    </mxGraphModel>
  </diagram>
  <diagram id="DdidMCSF9CAta6WW8qiw" name="条件逻辑覆盖">
    <mxGraphModel dx="1750" dy="890" grid="0" gridSize="10" guides="1" tooltips="1" connect="1" arrows="1" fold="1" page="1" pageScale="1" pageWidth="827" pageHeight="1169" math="0" shadow="0">
      <root>
        <mxCell id="0" />
        <mxCell id="1" parent="0" />
        <mxCell id="TY2ZsIlsWfIMWA_cXtT7-1" style="edgeStyle=orthogonalEdgeStyle;rounded=0;orthogonalLoop=1;jettySize=auto;html=1;exitX=0.5;exitY=1;exitDx=0;exitDy=0;entryX=0.5;entryY=0;entryDx=0;entryDy=0;" edge="1" parent="1" source="TY2ZsIlsWfIMWA_cXtT7-2" target="TY2ZsIlsWfIMWA_cXtT7-4">
          <mxGeometry relative="1" as="geometry" />
        </mxCell>
        <mxCell id="TY2ZsIlsWfIMWA_cXtT7-2" value="Entrance" style="rounded=1;whiteSpace=wrap;html=1;" vertex="1" parent="1">
          <mxGeometry x="251.75" y="78" width="82" height="41" as="geometry" />
        </mxCell>
        <mxCell id="TY2ZsIlsWfIMWA_cXtT7-3" style="edgeStyle=orthogonalEdgeStyle;rounded=0;orthogonalLoop=1;jettySize=auto;html=1;exitX=0.5;exitY=1;exitDx=0;exitDy=0;entryX=0.5;entryY=0;entryDx=0;entryDy=0;" edge="1" parent="1" source="TY2ZsIlsWfIMWA_cXtT7-4" target="TY2ZsIlsWfIMWA_cXtT7-32">
          <mxGeometry relative="1" as="geometry" />
        </mxCell>
        <mxCell id="TY2ZsIlsWfIMWA_cXtT7-4" value="Enter a, b, c" style="rounded=0;whiteSpace=wrap;html=1;" vertex="1" parent="1">
          <mxGeometry x="248.25" y="145" width="89" height="43" as="geometry" />
        </mxCell>
        <mxCell id="TY2ZsIlsWfIMWA_cXtT7-5" value="F" style="edgeStyle=orthogonalEdgeStyle;rounded=0;orthogonalLoop=1;jettySize=auto;html=1;exitX=1;exitY=0.5;exitDx=0;exitDy=0;entryX=0;entryY=0.5;entryDx=0;entryDy=0;" edge="1" parent="1" source="TY2ZsIlsWfIMWA_cXtT7-7" target="TY2ZsIlsWfIMWA_cXtT7-9">
          <mxGeometry x="-0.0295" y="11" relative="1" as="geometry">
            <mxPoint as="offset" />
          </mxGeometry>
        </mxCell>
        <mxCell id="TY2ZsIlsWfIMWA_cXtT7-6" value="T" style="edgeStyle=orthogonalEdgeStyle;rounded=0;orthogonalLoop=1;jettySize=auto;html=1;exitX=0.5;exitY=1;exitDx=0;exitDy=0;entryX=0.5;entryY=0;entryDx=0;entryDy=0;" edge="1" parent="1" source="TY2ZsIlsWfIMWA_cXtT7-7" target="TY2ZsIlsWfIMWA_cXtT7-12">
          <mxGeometry x="0.2444" y="15" relative="1" as="geometry">
            <mxPoint as="offset" />
          </mxGeometry>
        </mxCell>
        <mxCell id="TY2ZsIlsWfIMWA_cXtT7-7" value="(a &amp;lt; b+c) &amp;amp;&amp;amp; (b &amp;lt; a+c) &amp;amp;&amp;amp;&lt;br&gt;&amp;nbsp;(c &amp;lt; a+b)" style="rhombus;whiteSpace=wrap;html=1;" vertex="1" parent="1">
          <mxGeometry x="186" y="334.5" width="213.5" height="80" as="geometry" />
        </mxCell>
        <mxCell id="TY2ZsIlsWfIMWA_cXtT7-8" style="edgeStyle=orthogonalEdgeStyle;rounded=0;orthogonalLoop=1;jettySize=auto;html=1;exitX=1;exitY=0.5;exitDx=0;exitDy=0;entryX=1;entryY=0.5;entryDx=0;entryDy=0;" edge="1" parent="1" source="TY2ZsIlsWfIMWA_cXtT7-9" target="TY2ZsIlsWfIMWA_cXtT7-22">
          <mxGeometry relative="1" as="geometry" />
        </mxCell>
        <mxCell id="TY2ZsIlsWfIMWA_cXtT7-9" value="Not a Triangle" style="rounded=0;whiteSpace=wrap;html=1;" vertex="1" parent="1">
          <mxGeometry x="436.75" y="351" width="96" height="47" as="geometry" />
        </mxCell>
        <mxCell id="TY2ZsIlsWfIMWA_cXtT7-10" value="T" style="edgeStyle=orthogonalEdgeStyle;rounded=0;orthogonalLoop=1;jettySize=auto;html=1;exitX=1;exitY=0.5;exitDx=0;exitDy=0;" edge="1" parent="1" source="TY2ZsIlsWfIMWA_cXtT7-12" target="TY2ZsIlsWfIMWA_cXtT7-17">
          <mxGeometry x="-0.0539" y="15" relative="1" as="geometry">
            <mxPoint as="offset" />
          </mxGeometry>
        </mxCell>
        <mxCell id="TY2ZsIlsWfIMWA_cXtT7-11" value="F" style="edgeStyle=orthogonalEdgeStyle;rounded=0;orthogonalLoop=1;jettySize=auto;html=1;exitX=0.5;exitY=1;exitDx=0;exitDy=0;entryX=0.5;entryY=0;entryDx=0;entryDy=0;" edge="1" parent="1" source="TY2ZsIlsWfIMWA_cXtT7-12" target="TY2ZsIlsWfIMWA_cXtT7-15">
          <mxGeometry x="-0.0244" y="9" relative="1" as="geometry">
            <mxPoint as="offset" />
          </mxGeometry>
        </mxCell>
        <mxCell id="TY2ZsIlsWfIMWA_cXtT7-12" value="a == b &amp;amp;&amp;amp; b == c" style="rhombus;whiteSpace=wrap;html=1;" vertex="1" parent="1">
          <mxGeometry x="219.75" y="459.5" width="146" height="62" as="geometry" />
        </mxCell>
        <mxCell id="TY2ZsIlsWfIMWA_cXtT7-13" value="T" style="edgeStyle=orthogonalEdgeStyle;rounded=0;orthogonalLoop=1;jettySize=auto;html=1;exitX=1;exitY=0.5;exitDx=0;exitDy=0;entryX=0;entryY=0.5;entryDx=0;entryDy=0;" edge="1" parent="1" source="TY2ZsIlsWfIMWA_cXtT7-15" target="TY2ZsIlsWfIMWA_cXtT7-19">
          <mxGeometry x="-0.1429" y="15" relative="1" as="geometry">
            <mxPoint x="1" as="offset" />
          </mxGeometry>
        </mxCell>
        <mxCell id="TY2ZsIlsWfIMWA_cXtT7-14" value="F" style="edgeStyle=orthogonalEdgeStyle;rounded=0;orthogonalLoop=1;jettySize=auto;html=1;exitX=0.5;exitY=1;exitDx=0;exitDy=0;entryX=0.5;entryY=0;entryDx=0;entryDy=0;" edge="1" parent="1" source="TY2ZsIlsWfIMWA_cXtT7-15" target="TY2ZsIlsWfIMWA_cXtT7-21">
          <mxGeometry x="-0.1304" y="16" relative="1" as="geometry">
            <mxPoint as="offset" />
          </mxGeometry>
        </mxCell>
        <mxCell id="TY2ZsIlsWfIMWA_cXtT7-15" value="a != b &amp;amp;&amp;amp; a != c &amp;amp;&amp;amp; b != c" style="rhombus;whiteSpace=wrap;html=1;" vertex="1" parent="1">
          <mxGeometry x="199.25" y="562.5" width="187" height="70" as="geometry" />
        </mxCell>
        <mxCell id="TY2ZsIlsWfIMWA_cXtT7-16" style="edgeStyle=orthogonalEdgeStyle;rounded=0;orthogonalLoop=1;jettySize=auto;html=1;exitX=1;exitY=0.5;exitDx=0;exitDy=0;entryX=1;entryY=0.5;entryDx=0;entryDy=0;" edge="1" parent="1" source="TY2ZsIlsWfIMWA_cXtT7-17" target="TY2ZsIlsWfIMWA_cXtT7-22">
          <mxGeometry relative="1" as="geometry" />
        </mxCell>
        <mxCell id="TY2ZsIlsWfIMWA_cXtT7-17" value="Equilateral" style="rounded=0;whiteSpace=wrap;html=1;" vertex="1" parent="1">
          <mxGeometry x="441.75" y="467.75" width="91" height="45.5" as="geometry" />
        </mxCell>
        <mxCell id="TY2ZsIlsWfIMWA_cXtT7-18" style="edgeStyle=orthogonalEdgeStyle;rounded=0;orthogonalLoop=1;jettySize=auto;html=1;exitX=0.5;exitY=1;exitDx=0;exitDy=0;entryX=0.5;entryY=0;entryDx=0;entryDy=0;" edge="1" parent="1" source="TY2ZsIlsWfIMWA_cXtT7-19" target="TY2ZsIlsWfIMWA_cXtT7-22">
          <mxGeometry relative="1" as="geometry" />
        </mxCell>
        <mxCell id="TY2ZsIlsWfIMWA_cXtT7-19" value="Scalene" style="rounded=0;whiteSpace=wrap;html=1;" vertex="1" parent="1">
          <mxGeometry x="433.64" y="575.31" width="88.75" height="44.38" as="geometry" />
        </mxCell>
        <mxCell id="TY2ZsIlsWfIMWA_cXtT7-20" style="edgeStyle=orthogonalEdgeStyle;rounded=0;orthogonalLoop=1;jettySize=auto;html=1;exitX=1;exitY=0.5;exitDx=0;exitDy=0;entryX=0;entryY=0.5;entryDx=0;entryDy=0;" edge="1" parent="1" source="TY2ZsIlsWfIMWA_cXtT7-21" target="TY2ZsIlsWfIMWA_cXtT7-22">
          <mxGeometry relative="1" as="geometry" />
        </mxCell>
        <mxCell id="TY2ZsIlsWfIMWA_cXtT7-21" value="Isosceles" style="rounded=0;whiteSpace=wrap;html=1;" vertex="1" parent="1">
          <mxGeometry x="250.25" y="678.5" width="85" height="42.5" as="geometry" />
        </mxCell>
        <mxCell id="TY2ZsIlsWfIMWA_cXtT7-22" value="Return" style="rounded=1;whiteSpace=wrap;html=1;" vertex="1" parent="1">
          <mxGeometry x="436.01" y="679" width="84" height="42" as="geometry" />
        </mxCell>
        <mxCell id="TY2ZsIlsWfIMWA_cXtT7-23" value="S1 S2 S3 S4 S5 S6" style="text;html=1;align=center;verticalAlign=middle;resizable=0;points=[];autosize=1;strokeColor=none;fillColor=none;" vertex="1" parent="1">
          <mxGeometry x="107" y="201" width="123" height="26" as="geometry" />
        </mxCell>
        <mxCell id="TY2ZsIlsWfIMWA_cXtT7-24" value="S7 S8 S9&lt;br&gt;" style="text;html=1;align=center;verticalAlign=middle;resizable=0;points=[];autosize=1;strokeColor=none;fillColor=none;" vertex="1" parent="1">
          <mxGeometry x="142.5" y="325" width="69" height="26" as="geometry" />
        </mxCell>
        <mxCell id="TY2ZsIlsWfIMWA_cXtT7-25" value="S10 S11" style="text;html=1;align=center;verticalAlign=middle;resizable=0;points=[];autosize=1;strokeColor=none;fillColor=none;" vertex="1" parent="1">
          <mxGeometry x="148.5" y="477.5" width="63" height="26" as="geometry" />
        </mxCell>
        <mxCell id="TY2ZsIlsWfIMWA_cXtT7-27" value="S12 S13 S14" style="text;html=1;align=center;verticalAlign=middle;resizable=0;points=[];autosize=1;strokeColor=none;fillColor=none;" vertex="1" parent="1">
          <mxGeometry x="135.5" y="562.5" width="89" height="26" as="geometry" />
        </mxCell>
        <mxCell id="TY2ZsIlsWfIMWA_cXtT7-30" value="F" style="edgeStyle=orthogonalEdgeStyle;rounded=0;orthogonalLoop=1;jettySize=auto;html=1;exitX=0.5;exitY=1;exitDx=0;exitDy=0;entryX=0.5;entryY=0;entryDx=0;entryDy=0;" edge="1" parent="1" source="TY2ZsIlsWfIMWA_cXtT7-32" target="TY2ZsIlsWfIMWA_cXtT7-7">
          <mxGeometry x="0.0435" y="10" relative="1" as="geometry">
            <mxPoint as="offset" />
          </mxGeometry>
        </mxCell>
        <mxCell id="TY2ZsIlsWfIMWA_cXtT7-31" value="T" style="edgeStyle=orthogonalEdgeStyle;rounded=0;orthogonalLoop=1;jettySize=auto;html=1;exitX=1;exitY=0.5;exitDx=0;exitDy=0;" edge="1" parent="1" source="TY2ZsIlsWfIMWA_cXtT7-32" target="TY2ZsIlsWfIMWA_cXtT7-9">
          <mxGeometry x="0.0544" y="-17" relative="1" as="geometry">
            <mxPoint as="offset" />
          </mxGeometry>
        </mxCell>
        <mxCell id="TY2ZsIlsWfIMWA_cXtT7-32" value="a &amp;lt;= 0 || a &amp;gt;= 200 || b &amp;lt;= 0 || b &amp;gt;= 200&lt;br&gt;&amp;nbsp;|| c &amp;lt;= 0 || c &amp;gt;= 200" style="rhombus;whiteSpace=wrap;html=1;" vertex="1" parent="1">
          <mxGeometry x="154.75" y="214" width="276" height="86" as="geometry" />
        </mxCell>
      </root>
    </mxGraphModel>
  </diagram>
  <diagram id="Sa9uiIbeOBKwf3oIVt64" name="基本路径测试">
    <mxGraphModel dx="1750" dy="890" grid="0" gridSize="10" guides="1" tooltips="1" connect="1" arrows="1" fold="1" page="1" pageScale="1" pageWidth="827" pageHeight="1169" math="0" shadow="0">
      <root>
        <mxCell id="0" />
        <mxCell id="1" parent="0" />
        <mxCell id="qJYz9pUPXMdXGfd2IGR--26" value="1&lt;br&gt;" style="text;html=1;align=center;verticalAlign=middle;resizable=0;points=[];autosize=1;strokeColor=none;fillColor=none;" parent="1" vertex="1">
          <mxGeometry x="206.25" y="136" width="25" height="26" as="geometry" />
        </mxCell>
        <mxCell id="qJYz9pUPXMdXGfd2IGR--27" value="2&lt;br&gt;" style="text;html=1;align=center;verticalAlign=middle;resizable=0;points=[];autosize=1;strokeColor=none;fillColor=none;" parent="1" vertex="1">
          <mxGeometry x="199.5" y="212" width="25" height="26" as="geometry" />
        </mxCell>
        <mxCell id="qJYz9pUPXMdXGfd2IGR--28" value="3" style="text;html=1;align=center;verticalAlign=middle;resizable=0;points=[];autosize=1;strokeColor=none;fillColor=none;" parent="1" vertex="1">
          <mxGeometry x="206.25" y="325.5" width="25" height="26" as="geometry" />
        </mxCell>
        <mxCell id="qJYz9pUPXMdXGfd2IGR--29" value="7" style="text;html=1;align=center;verticalAlign=middle;resizable=0;points=[];autosize=1;strokeColor=none;fillColor=none;" parent="1" vertex="1">
          <mxGeometry x="444.25" y="311.5" width="25" height="26" as="geometry" />
        </mxCell>
        <mxCell id="qJYz9pUPXMdXGfd2IGR--30" value="6" style="text;html=1;align=center;verticalAlign=middle;resizable=0;points=[];autosize=1;strokeColor=none;fillColor=none;" parent="1" vertex="1">
          <mxGeometry x="206.25" y="655.5" width="25" height="26" as="geometry" />
        </mxCell>
        <mxCell id="qJYz9pUPXMdXGfd2IGR--31" value="4" style="text;html=1;align=center;verticalAlign=middle;resizable=0;points=[];autosize=1;strokeColor=none;fillColor=none;" parent="1" vertex="1">
          <mxGeometry x="206.25" y="447.75" width="25" height="26" as="geometry" />
        </mxCell>
        <mxCell id="qJYz9pUPXMdXGfd2IGR--32" value="9" style="text;html=1;align=center;verticalAlign=middle;resizable=0;points=[];autosize=1;strokeColor=none;fillColor=none;" parent="1" vertex="1">
          <mxGeometry x="423.5" y="458.75" width="25" height="26" as="geometry" />
        </mxCell>
        <mxCell id="qJYz9pUPXMdXGfd2IGR--33" value="5" style="text;html=1;align=center;verticalAlign=middle;resizable=0;points=[];autosize=1;strokeColor=none;fillColor=none;" parent="1" vertex="1">
          <mxGeometry x="203" y="551" width="25" height="26" as="geometry" />
        </mxCell>
        <mxCell id="U82WJAS0-brjJX5fZh-N-30" style="edgeStyle=orthogonalEdgeStyle;rounded=0;orthogonalLoop=1;jettySize=auto;html=1;exitX=0.5;exitY=1;exitDx=0;exitDy=0;entryX=0.5;entryY=0;entryDx=0;entryDy=0;" edge="1" parent="1" source="U82WJAS0-brjJX5fZh-N-31" target="U82WJAS0-brjJX5fZh-N-33">
          <mxGeometry relative="1" as="geometry" />
        </mxCell>
        <mxCell id="U82WJAS0-brjJX5fZh-N-31" value="Entrance" style="rounded=1;whiteSpace=wrap;html=1;" vertex="1" parent="1">
          <mxGeometry x="203" y="95" width="82" height="41" as="geometry" />
        </mxCell>
        <mxCell id="U82WJAS0-brjJX5fZh-N-32" style="edgeStyle=orthogonalEdgeStyle;rounded=0;orthogonalLoop=1;jettySize=auto;html=1;exitX=0.5;exitY=1;exitDx=0;exitDy=0;entryX=0.5;entryY=0;entryDx=0;entryDy=0;" edge="1" parent="1" source="U82WJAS0-brjJX5fZh-N-33" target="U82WJAS0-brjJX5fZh-N-58">
          <mxGeometry relative="1" as="geometry" />
        </mxCell>
        <mxCell id="U82WJAS0-brjJX5fZh-N-33" value="Enter a, b, c" style="rounded=0;whiteSpace=wrap;html=1;" vertex="1" parent="1">
          <mxGeometry x="199.5" y="162" width="89" height="43" as="geometry" />
        </mxCell>
        <mxCell id="U82WJAS0-brjJX5fZh-N-34" value="F" style="edgeStyle=orthogonalEdgeStyle;rounded=0;orthogonalLoop=1;jettySize=auto;html=1;exitX=1;exitY=0.5;exitDx=0;exitDy=0;entryX=0;entryY=0.5;entryDx=0;entryDy=0;" edge="1" parent="1" source="U82WJAS0-brjJX5fZh-N-36" target="U82WJAS0-brjJX5fZh-N-38">
          <mxGeometry x="-0.0295" y="11" relative="1" as="geometry">
            <mxPoint as="offset" />
          </mxGeometry>
        </mxCell>
        <mxCell id="U82WJAS0-brjJX5fZh-N-35" value="T" style="edgeStyle=orthogonalEdgeStyle;rounded=0;orthogonalLoop=1;jettySize=auto;html=1;exitX=0.5;exitY=1;exitDx=0;exitDy=0;entryX=0.5;entryY=0;entryDx=0;entryDy=0;" edge="1" parent="1" source="U82WJAS0-brjJX5fZh-N-36" target="U82WJAS0-brjJX5fZh-N-41">
          <mxGeometry x="0.2444" y="15" relative="1" as="geometry">
            <mxPoint as="offset" />
          </mxGeometry>
        </mxCell>
        <mxCell id="U82WJAS0-brjJX5fZh-N-36" value="(a &amp;lt; b+c) &amp;amp;&amp;amp; (b &amp;lt; a+c) &amp;amp;&amp;amp;&lt;br&gt;&amp;nbsp;(c &amp;lt; a+b)" style="rhombus;whiteSpace=wrap;html=1;" vertex="1" parent="1">
          <mxGeometry x="137.25" y="351.5" width="213.5" height="80" as="geometry" />
        </mxCell>
        <mxCell id="U82WJAS0-brjJX5fZh-N-37" style="edgeStyle=orthogonalEdgeStyle;rounded=0;orthogonalLoop=1;jettySize=auto;html=1;exitX=1;exitY=0.5;exitDx=0;exitDy=0;entryX=1;entryY=0.5;entryDx=0;entryDy=0;" edge="1" parent="1" source="U82WJAS0-brjJX5fZh-N-38" target="U82WJAS0-brjJX5fZh-N-51">
          <mxGeometry relative="1" as="geometry" />
        </mxCell>
        <mxCell id="U82WJAS0-brjJX5fZh-N-38" value="Not a Triangle" style="rounded=0;whiteSpace=wrap;html=1;" vertex="1" parent="1">
          <mxGeometry x="388" y="368" width="96" height="47" as="geometry" />
        </mxCell>
        <mxCell id="U82WJAS0-brjJX5fZh-N-39" value="T" style="edgeStyle=orthogonalEdgeStyle;rounded=0;orthogonalLoop=1;jettySize=auto;html=1;exitX=1;exitY=0.5;exitDx=0;exitDy=0;" edge="1" parent="1" source="U82WJAS0-brjJX5fZh-N-41" target="U82WJAS0-brjJX5fZh-N-46">
          <mxGeometry x="-0.0539" y="15" relative="1" as="geometry">
            <mxPoint as="offset" />
          </mxGeometry>
        </mxCell>
        <mxCell id="U82WJAS0-brjJX5fZh-N-40" value="F" style="edgeStyle=orthogonalEdgeStyle;rounded=0;orthogonalLoop=1;jettySize=auto;html=1;exitX=0.5;exitY=1;exitDx=0;exitDy=0;entryX=0.5;entryY=0;entryDx=0;entryDy=0;" edge="1" parent="1" source="U82WJAS0-brjJX5fZh-N-41" target="U82WJAS0-brjJX5fZh-N-44">
          <mxGeometry x="-0.0244" y="9" relative="1" as="geometry">
            <mxPoint as="offset" />
          </mxGeometry>
        </mxCell>
        <mxCell id="U82WJAS0-brjJX5fZh-N-41" value="a == b &amp;amp;&amp;amp; b == c" style="rhombus;whiteSpace=wrap;html=1;" vertex="1" parent="1">
          <mxGeometry x="171" y="476.5" width="146" height="62" as="geometry" />
        </mxCell>
        <mxCell id="U82WJAS0-brjJX5fZh-N-42" value="T" style="edgeStyle=orthogonalEdgeStyle;rounded=0;orthogonalLoop=1;jettySize=auto;html=1;exitX=1;exitY=0.5;exitDx=0;exitDy=0;entryX=0;entryY=0.5;entryDx=0;entryDy=0;" edge="1" parent="1" source="U82WJAS0-brjJX5fZh-N-44" target="U82WJAS0-brjJX5fZh-N-48">
          <mxGeometry x="-0.1429" y="15" relative="1" as="geometry">
            <mxPoint x="1" as="offset" />
          </mxGeometry>
        </mxCell>
        <mxCell id="U82WJAS0-brjJX5fZh-N-43" value="F" style="edgeStyle=orthogonalEdgeStyle;rounded=0;orthogonalLoop=1;jettySize=auto;html=1;exitX=0.5;exitY=1;exitDx=0;exitDy=0;entryX=0.5;entryY=0;entryDx=0;entryDy=0;" edge="1" parent="1" source="U82WJAS0-brjJX5fZh-N-44" target="U82WJAS0-brjJX5fZh-N-50">
          <mxGeometry x="-0.1304" y="16" relative="1" as="geometry">
            <mxPoint as="offset" />
          </mxGeometry>
        </mxCell>
        <mxCell id="U82WJAS0-brjJX5fZh-N-44" value="a != b &amp;amp;&amp;amp; a != c &amp;amp;&amp;amp; b != c" style="rhombus;whiteSpace=wrap;html=1;" vertex="1" parent="1">
          <mxGeometry x="150.5" y="579.5" width="187" height="70" as="geometry" />
        </mxCell>
        <mxCell id="U82WJAS0-brjJX5fZh-N-45" style="edgeStyle=orthogonalEdgeStyle;rounded=0;orthogonalLoop=1;jettySize=auto;html=1;exitX=1;exitY=0.5;exitDx=0;exitDy=0;entryX=1;entryY=0.5;entryDx=0;entryDy=0;" edge="1" parent="1" source="U82WJAS0-brjJX5fZh-N-46" target="U82WJAS0-brjJX5fZh-N-51">
          <mxGeometry relative="1" as="geometry" />
        </mxCell>
        <mxCell id="U82WJAS0-brjJX5fZh-N-46" value="Equilateral" style="rounded=0;whiteSpace=wrap;html=1;" vertex="1" parent="1">
          <mxGeometry x="393" y="484.75" width="91" height="45.5" as="geometry" />
        </mxCell>
        <mxCell id="U82WJAS0-brjJX5fZh-N-47" style="edgeStyle=orthogonalEdgeStyle;rounded=0;orthogonalLoop=1;jettySize=auto;html=1;exitX=0.5;exitY=1;exitDx=0;exitDy=0;entryX=0.5;entryY=0;entryDx=0;entryDy=0;" edge="1" parent="1" source="U82WJAS0-brjJX5fZh-N-48" target="U82WJAS0-brjJX5fZh-N-51">
          <mxGeometry relative="1" as="geometry" />
        </mxCell>
        <mxCell id="U82WJAS0-brjJX5fZh-N-48" value="Scalene" style="rounded=0;whiteSpace=wrap;html=1;" vertex="1" parent="1">
          <mxGeometry x="384.89" y="592.31" width="88.75" height="44.38" as="geometry" />
        </mxCell>
        <mxCell id="U82WJAS0-brjJX5fZh-N-49" style="edgeStyle=orthogonalEdgeStyle;rounded=0;orthogonalLoop=1;jettySize=auto;html=1;exitX=1;exitY=0.5;exitDx=0;exitDy=0;entryX=0;entryY=0.5;entryDx=0;entryDy=0;" edge="1" parent="1" source="U82WJAS0-brjJX5fZh-N-50" target="U82WJAS0-brjJX5fZh-N-51">
          <mxGeometry relative="1" as="geometry" />
        </mxCell>
        <mxCell id="U82WJAS0-brjJX5fZh-N-50" value="Isosceles" style="rounded=0;whiteSpace=wrap;html=1;" vertex="1" parent="1">
          <mxGeometry x="201.5" y="695.5" width="85" height="42.5" as="geometry" />
        </mxCell>
        <mxCell id="U82WJAS0-brjJX5fZh-N-51" value="Return" style="rounded=1;whiteSpace=wrap;html=1;" vertex="1" parent="1">
          <mxGeometry x="387.26" y="696" width="84" height="42" as="geometry" />
        </mxCell>
        <mxCell id="U82WJAS0-brjJX5fZh-N-56" value="F" style="edgeStyle=orthogonalEdgeStyle;rounded=0;orthogonalLoop=1;jettySize=auto;html=1;exitX=0.5;exitY=1;exitDx=0;exitDy=0;entryX=0.5;entryY=0;entryDx=0;entryDy=0;" edge="1" parent="1" source="U82WJAS0-brjJX5fZh-N-58" target="U82WJAS0-brjJX5fZh-N-36">
          <mxGeometry x="0.0435" y="10" relative="1" as="geometry">
            <mxPoint as="offset" />
          </mxGeometry>
        </mxCell>
        <mxCell id="U82WJAS0-brjJX5fZh-N-57" value="T" style="edgeStyle=orthogonalEdgeStyle;rounded=0;orthogonalLoop=1;jettySize=auto;html=1;exitX=1;exitY=0.5;exitDx=0;exitDy=0;" edge="1" parent="1" source="U82WJAS0-brjJX5fZh-N-58" target="U82WJAS0-brjJX5fZh-N-38">
          <mxGeometry x="0.0544" y="-17" relative="1" as="geometry">
            <mxPoint as="offset" />
          </mxGeometry>
        </mxCell>
        <mxCell id="U82WJAS0-brjJX5fZh-N-58" value="a &amp;lt;= 0 || a &amp;gt;= 200 || b &amp;lt;= 0 || b &amp;gt;= 200&lt;br&gt;&amp;nbsp;|| c &amp;lt;= 0 || c &amp;gt;= 200" style="rhombus;whiteSpace=wrap;html=1;" vertex="1" parent="1">
          <mxGeometry x="106" y="231" width="276" height="86" as="geometry" />
        </mxCell>
        <mxCell id="U82WJAS0-brjJX5fZh-N-61" value="8" style="text;html=1;align=center;verticalAlign=middle;resizable=0;points=[];autosize=1;strokeColor=none;fillColor=none;" vertex="1" parent="1">
          <mxGeometry x="354.25" y="402.25" width="25" height="26" as="geometry" />
        </mxCell>
        <mxCell id="U82WJAS0-brjJX5fZh-N-62" value="10" style="text;html=1;align=center;verticalAlign=middle;resizable=0;points=[];autosize=1;strokeColor=none;fillColor=none;" vertex="1" parent="1">
          <mxGeometry x="413.76" y="566.31" width="31" height="26" as="geometry" />
        </mxCell>
      </root>
    </mxGraphModel>
  </diagram>
</mxfile>
